PathFileType	4	(X/Y/Z)	OpenSim_Sub09_CSStiffKnee_Gyro.trc
DataRate	CameraRate	NumFrames	NumMarkers	Units	OrigDataRate	OrigDataStartFrame	OrigNumFrames
100	100	27	8	m	100	4455	7127
Frame#	Time	torso_imu_offset_imu	pelvis_imu_offset_imu	tibia_r_imu_offset_imu	femur_r_imu_offset_imu	tibia_l_imu_offset_imu	femur_l_imu_offset_imu	toes_r_imu_offset_imu	toes_l_imu_offset_imu
				X1	Y1	Z1	X2	Y2	Z2	X3	Y3	Z3	X4	Y4	Z4	X5	Y5	Z5	X6	Y6	Z6	X7	Y7	Z7	X8		Y8	Z8	

4455	44.54000000	-0.55751018	-0.33323126	0.34484007	-0.21412582	0.11056820	0.38892549	4.62316915	-0.23321119	-2.52914901	-0.63369597	-0.25671395	1.77751263	-0.24652557	0.23534768	1.85977916	0.27133442	0.64306458	-0.41743299	-0.38382242	-2.84622879	-0.72345437	-0.58471634	-2.37171099	1.63168892
4456	44.55000000	-0.52534773	-0.34544117	0.27517932	-0.27932241	-0.06531758	-0.01646540	4.53636089	-0.15620626	-2.40695726	-0.23239190	-0.33160405	2.22486631	-0.28609666	0.21422718	1.92124599	0.21409011	0.77226633	-0.55893989	0.66850323	-1.61143997	-0.65338624	-0.57827699	-2.62307953	1.78050378
4457	44.56000000	-0.43586704	-0.37026798	0.27074798	-0.24948413	-0.03954046	-0.25142378	4.28203572	-0.01267272	-2.06995111	0.55257175	0.05213734	1.70912794	-0.27075709	0.21533528	1.93023278	0.16949173	0.85353217	-0.64989841	1.02630167	-1.13626859	-0.52017882	-0.59120139	-2.93386264	1.88144161
4458	44.57000000	-0.29713764	-0.41631540	0.23790984	-0.24260912	0.02887215	-0.35141181	2.82680605	-0.22955994	-1.86979496	0.50674203	0.06774146	0.89411490	-0.21813482	0.22818362	1.92341280	0.11828882	0.81706455	-0.69537796	1.10396634	-0.97595349	-0.46228495	-0.55512665	-3.12722389	1.92210254
4459	44.58000000	-0.15691684	-0.43890654	0.12975485	-0.09247321	0.06472717	-0.40452309	0.95418066	-1.11557196	-1.68158181	-0.32514341	-0.46783643	0.33360355	-0.15800159	0.24066397	1.91411546	0.06464034	0.62105513	-0.69283384	0.99890307	-0.53151561	-0.51743608	-0.36049528	-3.25838924	1.89539984
4460	44.59000000	-0.05707007	-0.39451794	0.02049468	0.12099781	0.17711424	-0.35024899	-0.40738129	-1.62466385	-1.70145085	-1.11198831	-0.71858999	-0.14316910	-0.15670679	0.23949318	1.90228338	0.02277080	0.33326166	-0.69806040	1.02318380	-0.26874324	-0.54873315	-0.14127866	-3.22448640	1.85525051
4461	44.60000000	-0.01134950	-0.31240987	-0.04741161	0.27155369	0.32181966	-0.25755335	-1.66156203	-1.66046078	-1.73310701	-1.59832018	-0.72214658	-0.67540496	-0.32649579	0.22345799	1.88960609	-0.01622097	0.02498492	-0.67884113	0.98845046	-0.16165857	-0.55212320	-0.16542485	-2.99024813	1.84872736
4462	44.61000000	0.00127202	-0.22219401	-0.07908094	0.42533783	0.36892262	-0.19984187	-2.08174574	-1.37995282	-1.04209214	-1.80536510	-0.98355846	-1.14675218	-0.44460640	0.18642539	1.83060195	-0.00269989	-0.22482746	-0.76166411	0.80556169	-0.11058794	-0.49769621	-0.00291277	-2.57499155	1.76778707
4463	44.62000000	0.00810692	-0.14069047	-0.08548156	0.57456376	0.35277558	-0.16426592	-1.47145897	-0.89216948	-0.50253198	-1.70074325	-1.04394134	-1.37998141	-0.64822910	0.24957532	1.75009137	0.00255699	-0.35685281	-0.85612598	0.65870754	-0.03545387	-0.38507433	0.25571266	-2.28071934	1.72345627
4464	44.63000000	0.03850533	-0.07924777	-0.08262619	0.67727239	0.33406427	-0.14194429	-1.03141342	-0.72428577	-0.54649730	-1.41812212	-0.84121882	-1.43238442	-1.04498925	0.29473527	1.62399588	0.00064963	-0.32504102	-0.93402883	0.50887146	-0.01448325	-0.27013297	0.05374104	-2.11001453	1.70104691
4465	44.64000000	0.08678520	-0.04308409	-0.06557507	0.74347246	0.29761728	-0.15044992	-1.01952691	-0.65560638	-0.48868092	-1.12099713	-0.64320225	-1.34964052	-1.44551001	0.25357766	1.52093299	0.01602171	-0.29924929	-1.07324018	0.34274917	-0.01428811	-0.16558639	-0.61748329	-2.09540672	1.72336683
4466	44.65000000	0.15666589	-0.03456689	-0.04835297	0.77570326	0.24821414	-0.17291880	-0.42299965	-0.60191542	-0.50764201	-0.71594457	-0.41079193	-1.17160061	-1.71043180	0.07317907	1.48702540	-0.08913675	-0.30749274	-1.20794662	0.22322491	-0.02867714	-0.09533895	-1.22394802	-2.17393217	1.43675767
4467	44.66000000	0.24436732	-0.04287184	-0.02860904	0.75800181	0.22494692	-0.21088086	0.71783026	-0.45283230	-0.85044296	-0.28884139	-0.23683241	-1.05474115	-1.66222321	-0.12998555	1.46067008	-0.30421867	-0.27179327	-1.28719902	0.14288335	-0.02840250	-0.02911311	-1.51311364	-1.64666775	1.02473184
4468	44.67000000	0.33378472	-0.06630679	-0.00846798	0.70068212	0.20563808	-0.26134441	1.54611703	-0.19179758	-0.97524231	0.03735491	-0.14326544	-1.08308562	-1.45730631	-0.21754942	1.36356627	-0.46632969	-0.21674753	-1.34922017	0.06651986	-0.02246998	0.03935045	-1.32162917	0.21436463	-0.19112865
4469	44.68000000	0.40407142	-0.09999106	0.01737400	0.62718331	0.18603358	-0.33122402	1.36697931	-0.13346410	-0.76858569	0.23965706	-0.03576241	-1.21274963	-0.85981036	-0.31800504	0.96581150	-0.52875917	-0.15249564	-1.39281509	0.00608080	-0.04006242	0.08981993	-0.86813432	1.10846291	-1.21013116
4470	44.69000000	0.43807644	-0.14076573	0.04312979	0.55610264	0.14809163	-0.42524455	0.53604117	-0.25995207	-0.46866360	0.30001345	0.04116697	-1.29774197	0.17189580	-0.27925734	0.03970485	-0.54498942	-0.18822828	-1.36466158	-0.03691435	-0.06096877	0.08681659	-0.94171977	0.99037249	-1.51651149
4471	44.70000000	0.45299381	-0.17815309	0.05072888	0.51715095	0.10161703	-0.51122135	-0.29182838	-0.40446877	-0.27843833	0.30458445	0.03353571	-1.31646049	1.02488017	0.16461258	-0.98183984	-0.63718052	-0.29800946	-1.17391062	0.03024208	-0.07492572	0.03294145	-0.96456568	1.56106412	-1.69280431
4472	44.71000000	0.48005473	-0.19216581	0.04918483	0.50624484	0.06751208	-0.54421595	-0.86478895	-0.45143047	-0.15883659	0.23950895	-0.02835977	-1.33475028	1.33194777	0.72182183	-1.55351829	-0.63490435	-0.32370258	-0.97882869	0.08725952	-0.07611753	-0.02394439	-0.71778880	2.57307748	-1.77273402
4473	44.72000000	0.54161507	-0.18654394	0.06086599	0.51248770	0.05621494	-0.55001262	-1.08894962	-0.45100102	-0.07649214	0.07923463	-0.16925402	-1.34707799	0.88974200	0.81994627	-1.81889038	-0.41386914	-0.26395593	-0.78759412	0.11016550	-0.06704288	-0.03998391	-0.36973903	3.37003276	-1.66482528
4474	44.73000000	0.62354606	-0.17800676	0.09038550	0.54742227	0.05925802	-0.55825366	-0.98126216	-0.41007763	-0.08918058	-0.09140889	-0.27230673	-1.35335789	0.30959133	0.34299782	-2.19485123	-0.16570052	-0.22139485	-0.65444987	0.11841996	-0.05380051	-0.04142403	0.06103167	3.92500601	-1.43677697
4475	44.74000000	0.72205740	-0.17486834	0.15046272	0.61410424	0.08108078	-0.59287273	-0.55212607	-0.31753372	-0.19659254	-0.27368453	-0.26125065	-1.34464676	0.15912314	-0.10227796	-2.72920851	-0.03821616	-0.18976616	-0.64792805	0.12237269	-0.04048150	-0.04249872	0.49629438	4.30909222	-1.17542127
4476	44.75000000	0.83106554	-0.15004230	0.17098789	0.69274667	0.11861583	-0.62441738	-0.13062195	-0.22778127	-0.33213231	-0.56825314	-0.24489008	-1.31908501	0.34201699	-0.14913413	-3.23310110	-0.03544337	-0.14926220	-0.68902056	0.11625906	-0.03101978	-0.03589122	0.91824138	4.61524003	-0.92410654
4477	44.76000000	0.94250596	-0.11829481	0.16650928	0.73817572	0.11660502	-0.63663635	0.03479523	-0.20477203	-0.39645833	-0.88388851	-0.26006083	-1.31001679	0.71929276	-0.01795922	-3.62548125	-0.02216357	-0.10886517	-0.72349598	0.08757754	-0.02173363	-0.03146109	1.28371299	4.85188220	-0.71757066
4478	44.77000000	1.04724451	-0.08663233	0.14735979	0.75895597	0.09803530	-0.64614560	-0.01289663	-0.21474915	-0.37682454	-1.10172470	-0.26631055	-1.29105737	1.00318147	0.09715176	-3.90447953	0.00110679	0.00428857	-0.73679906	0.05987326	-0.01159375	-0.03043985	1.53838824	4.90544968	-0.60022484
4479	44.78000000	1.13559818	-0.06597194	0.13348749	0.77095446	0.09274223	-0.64359562	-0.18490643	-0.24230291	-0.31429349	-1.18660735	-0.26696461	-1.25804482	1.23957925	0.21451465	-4.14125886	-0.01712991	0.15532551	-0.75614868	0.07104480	-0.00958163	-0.04357957	1.73677236	4.62012222	-0.58518129
4480	44.79000000	1.19184928	-0.07094939	0.12570697	0.78909528	0.10642614	-0.62714674	-0.44575688	-0.28684529	-0.27246953	-1.16398947	-0.30410213	-1.21365002	1.57016346	0.28182093	-4.32456981	-0.05209268	0.25706639	-0.79231294	0.06804508	0.00385349	-0.05852642	1.83640933	4.25045482	-0.67261201
4481	44.80000000	1.23131605	-0.07266068	0.11645167	0.81199304	0.12916887	-0.58757295	-0.61502479	-0.32838026	-0.27279242	-1.02237164	-0.32792808	-1.17587683	1.81923834	0.24268291	-4.35912628	-0.05677030	0.31873460	-0.83500433	0.07866908	0.01934515	-0.07899681	1.92361892	3.82497756	-0.78175179
